<mxfile host="app.diagrams.net" modified="2023-11-04T06:48:09.101Z" agent="Mozilla/5.0 (Windows NT 10.0; Win64; x64) AppleWebKit/537.36 (KHTML, like Gecko) Chrome/118.0.0.0 Safari/537.36 Edg/118.0.2088.76" etag="WkwIQPSd0ARWC5hM0tIk" version="22.0.8" type="device">
  <diagram name="第 1 页" id="cUAtHgkenarurdGupJhG">
    <mxGraphModel dx="1044" dy="573" grid="1" gridSize="10" guides="1" tooltips="1" connect="1" arrows="1" fold="1" page="1" pageScale="1" pageWidth="827" pageHeight="1169" math="0" shadow="0">
      <root>
        <mxCell id="0" />
        <mxCell id="1" parent="0" />
        <mxCell id="EHf2x3KLlfdhVPo6AQHP-2" value="BeanFactory" style="rounded=0;whiteSpace=wrap;html=1;" vertex="1" parent="1">
          <mxGeometry x="460" y="210" width="120" height="60" as="geometry" />
        </mxCell>
        <mxCell id="EHf2x3KLlfdhVPo6AQHP-3" value="Resource&lt;br&gt;（可遍历该资源的元素）" style="rounded=0;whiteSpace=wrap;html=1;" vertex="1" parent="1">
          <mxGeometry x="170" y="90" width="140" height="60" as="geometry" />
        </mxCell>
        <mxCell id="EHf2x3KLlfdhVPo6AQHP-4" value="ResourceElementReader" style="rounded=0;whiteSpace=wrap;html=1;" vertex="1" parent="1">
          <mxGeometry x="430" y="90" width="180" height="60" as="geometry" />
        </mxCell>
        <mxCell id="EHf2x3KLlfdhVPo6AQHP-5" value="" style="endArrow=classic;html=1;rounded=0;exitX=0.5;exitY=1;exitDx=0;exitDy=0;entryX=0.5;entryY=0;entryDx=0;entryDy=0;" edge="1" parent="1" source="EHf2x3KLlfdhVPo6AQHP-4" target="EHf2x3KLlfdhVPo6AQHP-2">
          <mxGeometry relative="1" as="geometry">
            <mxPoint x="360" y="300" as="sourcePoint" />
            <mxPoint x="460" y="300" as="targetPoint" />
          </mxGeometry>
        </mxCell>
        <mxCell id="EHf2x3KLlfdhVPo6AQHP-6" value="包含" style="edgeLabel;resizable=0;html=1;align=center;verticalAlign=middle;" connectable="0" vertex="1" parent="EHf2x3KLlfdhVPo6AQHP-5">
          <mxGeometry relative="1" as="geometry" />
        </mxCell>
        <mxCell id="EHf2x3KLlfdhVPo6AQHP-11" value="" style="endArrow=classic;html=1;rounded=0;exitX=0;exitY=0.5;exitDx=0;exitDy=0;entryX=1;entryY=0.5;entryDx=0;entryDy=0;" edge="1" parent="1" source="EHf2x3KLlfdhVPo6AQHP-4" target="EHf2x3KLlfdhVPo6AQHP-3">
          <mxGeometry relative="1" as="geometry">
            <mxPoint x="360" y="300" as="sourcePoint" />
            <mxPoint x="460" y="300" as="targetPoint" />
          </mxGeometry>
        </mxCell>
        <mxCell id="EHf2x3KLlfdhVPo6AQHP-12" value="加载" style="edgeLabel;resizable=0;html=1;align=center;verticalAlign=middle;" connectable="0" vertex="1" parent="EHf2x3KLlfdhVPo6AQHP-11">
          <mxGeometry relative="1" as="geometry" />
        </mxCell>
        <mxCell id="EHf2x3KLlfdhVPo6AQHP-14" value="BeanDefinitions" style="ellipse;whiteSpace=wrap;html=1;" vertex="1" parent="1">
          <mxGeometry x="390" y="300" width="120" height="80" as="geometry" />
        </mxCell>
        <mxCell id="EHf2x3KLlfdhVPo6AQHP-15" value="Beans" style="ellipse;whiteSpace=wrap;html=1;" vertex="1" parent="1">
          <mxGeometry x="540" y="300" width="120" height="80" as="geometry" />
        </mxCell>
        <mxCell id="EHf2x3KLlfdhVPo6AQHP-17" value="" style="endArrow=none;html=1;rounded=0;entryX=0.5;entryY=1;entryDx=0;entryDy=0;exitX=0.5;exitY=0;exitDx=0;exitDy=0;" edge="1" parent="1" source="EHf2x3KLlfdhVPo6AQHP-14" target="EHf2x3KLlfdhVPo6AQHP-2">
          <mxGeometry width="50" height="50" relative="1" as="geometry">
            <mxPoint x="220" y="370" as="sourcePoint" />
            <mxPoint x="270" y="320" as="targetPoint" />
          </mxGeometry>
        </mxCell>
        <mxCell id="EHf2x3KLlfdhVPo6AQHP-18" value="" style="endArrow=none;html=1;rounded=0;entryX=0.5;entryY=1;entryDx=0;entryDy=0;exitX=0.5;exitY=0;exitDx=0;exitDy=0;" edge="1" parent="1" source="EHf2x3KLlfdhVPo6AQHP-15" target="EHf2x3KLlfdhVPo6AQHP-2">
          <mxGeometry width="50" height="50" relative="1" as="geometry">
            <mxPoint x="520" y="330" as="sourcePoint" />
            <mxPoint x="570" y="280" as="targetPoint" />
          </mxGeometry>
        </mxCell>
      </root>
    </mxGraphModel>
  </diagram>
</mxfile>
